<?xml version="1.0" encoding="utf-8"?>
<!-- Generator: Adobe Illustrator 18.1.1, SVG Export Plug-In . SVG Version: 6.00 Build 0)  -->
<svg version="1.1" id="Layer_1" xmlns="http://www.w3.org/2000/svg" xmlns:xlink="http://www.w3.org/1999/xlink" x="0px" y="0px"
	 viewBox="0 0 205 15.6" enable-background="new 0 0 205 15.6" xml:space="preserve">
<path fill="#FFFFFF" d="M4.7,14c-2.4,0-2.5-2.4-2.5-3.7v-10H0v9.9c0,3.7,1.2,5.3,4.6,5.3c3.1,0,4.6-1.2,4.7-5.2V0.3H7.2v9.8
	C7.2,12.4,6.8,14,4.7,14z"/>
<path fill="#FFFFFF" d="M22.3,15.3v-15h-1.9v13.3L15.7,0.3h-3.3v15h1.8V1.9l4.7,13.4H22.3z"/>
<path fill="#FFFFFF" d="M180.1,15.3v-15h-1.9v13.3l-4.7-13.3h-3.3v15h1.8V1.9l4.7,13.4H180.1z"/>
<path fill="#FFFFFF" d="M28.1,15.3v-15h-2.2v15L28.1,15.3z"/>
<path fill="#FFFFFF" d="M77.5,15.3v-15h-2.2v15L77.5,15.3z"/>
<path fill="#FFFFFF" d="M35.3,13.4L32.3,0.3H30l3.8,15h2.6l4-15h-2.1L35.3,13.4z"/>
<path fill="#FFFFFF" d="M167.4,13.6h-5.3V8.3h4.8V6.7h-4.8V2h5.2V0.3h-7.4v15h7.5V13.6z"/>
<path fill="#FFFFFF" d="M200.7,13.6h-5.3V8.3h4.8V6.7h-4.8V2h5.2V0.3h-7.4v15h7.5V13.6z"/>
<path fill="#FFFFFF" d="M58.2,9.2c0.3,0.4,0.4,1.1,0.5,2.2c0,0.3,0,2.4,0.2,3.9h2.3c-0.2-1.1-0.3-3.8-0.3-4.3c0-1.1-0.2-2-0.5-2.4
	c-0.3-0.5-1-0.9-1.9-0.9C60.3,7.4,61.1,6,61.1,4c0-3.2-1.8-3.8-4.3-3.8h-4.3v15h2.2V8.5h1.5C57.2,8.5,57.9,8.7,58.2,9.2z M58.8,4.2
	c0,2.1-0.8,2.7-2.8,2.7h-1.3v-5h1.6C57.9,1.9,58.8,2.4,58.8,4.2z"/>
<path fill="#FFFFFF" d="M63.6,11.1c0,3.2,1.1,4.4,4.4,4.4c3,0,4.4-1.3,4.4-4c0-2.3-0.8-2.9-3.2-4.5c-0.4-0.2-0.7-0.5-1.1-0.7
	c-1-0.6-2.1-1.2-2.1-2.7c0-1.4,0.8-2.1,2-2.1c1.3,0,2,0.8,2,2.3v0.3h2.2V3.7c0-2.5-1.3-3.7-4.1-3.7c-2.9,0-4.4,1.4-4.4,3.9
	c0,2.4,1.3,3.3,3.6,4.7c0.5,0.3,1,0.6,1.3,0.8c0.7,0.4,1.5,1.1,1.5,2.4c0,1.5-0.7,2.2-2.2,2.2c-1.7,0-2.2-1.1-2.2-2.9V11L63.6,11.1
	L63.6,11.1z"/>
<path fill="#FFFFFF" d="M82.9,2v13.3h2.2V2l3.5,0V0.3h-9.2V2H82.9z M134.3,2v13.3h2.2V2l3.5,0V0.3h-9.2V2H134.3z M185.5,2v13.3h2.2
	V2l3.5,0V0.3H182V2H185.5z"/>
<path fill="#FFFFFF" d="M149.6,2.4l2.4,12.8h2.6l3.3-15h-2L153.5,13L151,0.3h-2.6L145.8,13l-2.3-12.7h-2.3l3.2,15h2.6L149.6,2.4z"/>
<circle fill="#FFFFFF" cx="203.9" cy="14.5" r="1.1"/>
<path fill="#FFFFFF" d="M93.1,9.6v5.7h2.2V9.6l4.1-9.3h-2.2l-2.8,7.4l-2.8-7.4h-2.4L93.1,9.6L93.1,9.6z"/>
<path fill="#FFFFFF" d="M106.5,1.3C106,2,105.6,2.9,105.5,4l0,0c-0.1,0.8-0.2,2.1-0.2,4l0,0c0,1.5,0,2.6,0.1,3.3l0,0
	c0.1,0.9,0.3,1.7,0.6,2.3l0,0c0.7,1.4,2,2,4,2l0,0c2.1,0,3.5-0.7,4.1-2.1l0,0c0.5-0.9,0.7-2.8,0.7-5.5l0,0c0-1.9-0.1-3.3-0.2-4.1
	l0,0c-0.2-1.2-0.5-2.1-1.1-2.6l0,0C112.8,0.4,111.7,0,110,0l0,0C108.4,0,107.3,0.4,106.5,1.3L106.5,1.3z M110,14
	c-0.8,0-1.3-0.2-1.7-0.7l0,0c-0.3-0.4-0.6-1-0.7-1.9l0,0c-0.1-0.3-0.1-0.8-0.1-1.4l0,0c0-0.6,0-1.4,0-2.3l0,0c0-1,0-1.8,0-2.4l0,0
	c0-0.6,0.1-1.1,0.1-1.4l0,0c0.3-1.6,1.1-2.4,2.4-2.4l0,0c1.3,0,2,0.8,2.3,2.2l0,0c0.1,0.7,0.2,2,0.2,3.8l0,0c0,1,0,1.8,0,2.5l0,0
	c0,0.6-0.1,1.1-0.1,1.5l0,0C112.1,13.1,111.3,14,110,14L110,14C110,14,110,14,110,14L110,14z"/>
<path fill="#FFFFFF" d="M117.9,15.3h2.2V8.4h4.5V6.7h-4.5V1.9h4.7V0.3h-6.9V15.3L117.9,15.3z"/>
<path fill="#FFFFFF" d="M49.9,13.6h-5.3V8.3h4.8V6.7h-4.8V2h5.2V0.3h-7.4v15h7.5V13.6z"/>
<g>
</g>
<g>
</g>
<g>
</g>
<g>
</g>
<g>
</g>
<g>
</g>
<g>
</g>
<g>
</g>
<g>
</g>
<g>
</g>
<g>
</g>
<g>
</g>
<g>
</g>
<g>
</g>
<g>
</g>
</svg>
