<?xml version="1.0" encoding="utf-8"?>
<!-- Generator: Adobe Illustrator 18.1.1, SVG Export Plug-In . SVG Version: 6.00 Build 0)  -->
<svg version="1.1" id="Layer_1" xmlns="http://www.w3.org/2000/svg" xmlns:xlink="http://www.w3.org/1999/xlink" x="0px" y="0px"
	 viewBox="0 0 1115.5 319" enable-background="new 0 0 1115.5 319" xml:space="preserve">
<g>
	<path fill="#FFFFFF" d="M37.6,18.8c0,7.5-1.9,12.6-5.8,15.3c-2.9,2-7.8,3-15,3h-5.3v25.9H0V1.2h18.4C25,1.2,29.8,2.5,32.9,5
		C36,7.6,37.6,12.2,37.6,18.8z M26.1,18.9c0-3.6-0.9-6.1-2.7-7.5c-1.5-1.2-4.2-1.8-7.9-1.8h-4.1v19.2h3.8c1.9,0,3.6-0.2,5-0.5
		c1.4-0.3,2.5-0.8,3.4-1.6c0.9-0.7,1.5-1.8,1.9-3C25.9,22.4,26.1,20.8,26.1,18.9z"/>
	<path fill="#FFFFFF" d="M71.9,63.1c-0.2-1.1-0.4-2.4-0.5-3.9s-0.2-3.1-0.2-4.8c-0.1-2.5-0.2-4.4-0.2-5.9c0-1.5-0.1-2.4-0.1-3
		c-0.2-3.6-0.9-6-2.1-7.2c-1.1-1.2-3.5-1.8-7.1-1.8h-4.5v26.5H45.6V1.2H65c6.2,0,10.6,0.9,13.3,2.8c3.5,2.4,5.2,6.8,5.2,13.2
		c0,8.6-3.5,13.6-10.5,15.1c3.8,0.2,6.4,1.6,7.7,4c1.2,2.1,1.8,5.8,1.9,11.4c0.1,4.1,0.1,6.6,0.3,7.7c0.2,3,0.5,5.6,1,7.7H71.9z
		 M71.8,18.2c0-3.1-0.8-5.4-2.3-6.7c-1.5-1.3-3.8-2-7-2h-5.5v18.6h4.4c1.9,0,3.5-0.2,4.8-0.5c1.3-0.3,2.4-0.9,3.2-1.6
		c0.8-0.8,1.4-1.8,1.8-3.1C71.6,21.7,71.8,20.1,71.8,18.2z"/>
	<path fill="#FFFFFF" d="M94,63.1V1.2h32.3v8.6h-21v16.9h19.4V35h-19.4v19.5h21.6v8.6H94z"/>
	<path fill="#FFFFFF" d="M133.1,44v-8h20v8H133.1z"/>
	<path fill="#FFFFFF" d="M202.8,42.9c0,7.3-1.5,12.6-4.5,16c-3.2,3.6-8.5,5.4-15.8,5.4c-7.5,0-12.8-2-15.9-5.9
		c-2.7-3.4-4.1-8.9-4.1-16.3V1.2h11.3v39.7c0,4.8,0.4,8.1,1.1,10c1.3,3.3,3.9,5,7.8,5c3.9,0,6.5-1.6,7.8-4.8
		c0.9-1.9,1.3-5.2,1.3-9.8V1.2h11.1V42.9z"/>
	<path fill="#FFFFFF" d="M273.7,32.9c0,11-0.9,18.4-2.8,22.3c-2.9,6-9,9-18.2,9c-8.8,0-14.6-3-17.5-8.9c-1.9-4-2.8-11.4-2.8-22.3
		c0-11.6,0.9-19.5,2.8-23.6C238.1,3.1,244,0,253,0c9.3,0,15.3,3.1,18.1,9.2C272.8,12.9,273.7,20.8,273.7,32.9z M262,31.3
		c0-8.4-0.4-13.9-1.1-16.5c-1.1-4.3-3.8-6.4-7.9-6.4c-4.1,0-6.7,2.3-8,6.8c-0.7,2.7-1.1,8.3-1.1,16.6c0,9,0.4,15,1.2,17.9
		c1.1,4.2,3.7,6.2,7.9,6.2c4,0,6.7-2.1,7.9-6.4C261.6,46.7,262,40.7,262,31.3z"/>
	<path fill="#FFFFFF" d="M308.4,63.1l-14.7-51.9v51.9h-10.1V1.2h17.2L315.6,53V1.2h10.1v61.9H308.4z"/>
	<path fill="#FFFFFF" d="M337.8,63.1V1.2h11.5v53.3h19.3v8.6H337.8z"/>
	<path fill="#FFFFFF" d="M376,63.1V1.2h11.5v61.9H376z"/>
	<path fill="#FFFFFF" d="M424.5,63.1l-14.7-51.9v51.9h-10.1V1.2h17.2L431.6,53V1.2h10.1v61.9H424.5z"/>
	<path fill="#FFFFFF" d="M453.8,63.1V1.2h32.3v8.6h-21v16.9h19.4V35h-19.4v19.5h21.6v8.6H453.8z"/>
	<path fill="#FFFFFF" d="M515.6,63.1V1.2h11.5v53.3h19.3v8.6H515.6z"/>
	<path fill="#FFFFFF" d="M553.8,63.1V1.2h32.3v8.6h-21v16.9h19.4V35h-19.4v19.5h21.6v8.6H553.8z"/>
	<path fill="#FFFFFF" d="M595.4,63.1V1.2h32.3v8.6h-21v16.9h19.4V35h-19.4v19.5h21.6v8.6H595.4z"/>
	<path fill="#FFFFFF" d="M663.3,63.1c-0.2-1.1-0.4-2.4-0.5-3.9s-0.2-3.1-0.2-4.8c-0.1-2.5-0.2-4.4-0.2-5.9c0-1.5-0.1-2.4-0.1-3
		c-0.2-3.6-0.9-6-2.1-7.2c-1.1-1.2-3.5-1.8-7.1-1.8h-4.5v26.5H637V1.2h19.4c6.2,0,10.6,0.9,13.3,2.8c3.5,2.4,5.2,6.8,5.2,13.2
		c0,8.6-3.5,13.6-10.5,15.1c3.8,0.2,6.4,1.6,7.7,4c1.2,2.1,1.8,5.8,1.9,11.4c0.1,4.1,0.1,6.6,0.3,7.7c0.2,3,0.5,5.6,1,7.7H663.3z
		 M663.2,18.2c0-3.1-0.8-5.4-2.3-6.7c-1.5-1.3-3.8-2-7-2h-5.5v18.6h4.4c1.9,0,3.5-0.2,4.8-0.5c1.3-0.3,2.4-0.9,3.2-1.6
		c0.8-0.8,1.4-1.8,1.8-3.1C663,21.7,663.2,20.1,663.2,18.2z"/>
	<path fill="#FFFFFF" d="M724.5,32.9c0,11-0.9,18.4-2.8,22.3c-2.9,6-9,9-18.2,9c-8.8,0-14.6-3-17.5-8.9c-1.9-4-2.8-11.4-2.8-22.3
		c0-11.6,0.9-19.5,2.8-23.6c2.9-6.3,8.8-9.4,17.8-9.4c9.3,0,15.3,3.1,18.1,9.2C723.7,12.9,724.5,20.8,724.5,32.9z M712.8,31.3
		c0-8.4-0.4-13.9-1.1-16.5c-1.1-4.3-3.8-6.4-7.9-6.4c-4.1,0-6.7,2.3-8,6.8c-0.7,2.7-1.1,8.3-1.1,16.6c0,9,0.4,15,1.2,17.9
		c1.1,4.2,3.7,6.2,7.9,6.2c4,0,6.7-2.1,7.9-6.4C712.4,46.7,712.8,40.7,712.8,31.3z"/>
	<path fill="#FFFFFF" d="M782.2,63.1V8.8l-12.7,54.2h-12L744.7,8.8v54.2h-10.2V1.2h18.7L764,50.7l10.5-49.5h18.7v61.9H782.2z"/>
	<path fill="#FFFFFF" d="M832.3,19.5v-1c0-6.7-2.7-10.1-8-10.1c-4.1,0-6.8,2-8,6c-1,2.9-1.5,8.1-1.5,15.6c0,10.3,0.6,17.1,1.8,20.4
		c1.3,3.7,3.9,5.5,7.9,5.5c3,0,5.6-0.5,7.8-1.4V38.8h-8.1v-8.4h19.4v31c-6.4,1.9-12.7,2.9-18.8,2.9c-9.5,0-15.7-3-18.6-8.9
		c-1.9-3.9-2.9-11.9-2.9-23.8c0-11,0.9-18.4,2.8-22.3c2.9-6.2,9-9.2,18.2-9.2c6.6,0,11.4,1.5,14.6,4.4c3.2,2.9,4.8,7.7,4.8,14.2v0.9
		H832.3z"/>
	<path fill="#FFFFFF" d="M853.5,63.1V1.2h32.3v8.6h-21v16.9h19.4V35h-19.4v19.5h21.6v8.6H853.5z"/>
	<path fill="#FFFFFF" d="M918.6,63.1h-13.4L889.8,1.2h12l10.6,51.6l11.3-51.6h11.3L918.6,63.1z"/>
	<path fill="#FFFFFF" d="M941.8,63.1V1.2h11.5v61.9H941.8z"/>
	<path fill="#FFFFFF" d="M990.2,63.1l-14.7-51.9v51.9h-10.1V1.2h17.2L997.3,53V1.2h10.1v61.9H990.2z"/>
	<path fill="#FFFFFF" d="M1046.3,19.5v-1c0-6.7-2.7-10.1-8-10.1c-4.1,0-6.8,2-8,6c-1,2.9-1.5,8.1-1.5,15.6c0,10.3,0.6,17.1,1.8,20.4
		c1.3,3.7,3.9,5.5,7.9,5.5c3,0,5.6-0.5,7.8-1.4V38.8h-8.1v-8.4h19.4v31c-6.4,1.9-12.7,2.9-18.8,2.9c-9.5,0-15.7-3-18.6-8.9
		c-1.9-3.9-2.9-11.9-2.9-23.8c0-11,0.9-18.4,2.8-22.3c2.9-6.2,9-9.2,18.2-9.2c6.6,0,11.4,1.5,14.6,4.4c3.2,2.9,4.8,7.7,4.8,14.2v0.9
		H1046.3z"/>
</g>
<g>
	<path fill="#FFFFFF" d="M54.4,148h-7.1V91.5L31.4,148h-8.1L7.4,91.5V148H0.8V86.2h12l14.9,54.5l14.8-54.5h12V148z"/>
	<path fill="#FFFFFF" d="M97.2,148H68.1V86.2h28.5v5.9H75.4v21.2h20.1v5.7H75.4v23.1h21.8V148z"/>
	<path fill="#FFFFFF" d="M136.2,148h-29.1V86.2h28.5v5.9h-21.2v21.2h20.1v5.7h-20.1v23.1h21.8V148z"/>
	<path fill="#FFFFFF" d="M179.3,148h-7.6c-0.4-2.3-0.6-4.4-0.6-6.4c0-1-0.1-3.7-0.3-8.1c-0.3-6.2-0.8-9.9-1.5-11.1
		c-1.1-2.2-4-3.3-8.6-3.3h-7.3V148h-7.3V86.2h16.5c5.6,0,9.7,1.1,12.2,3.3c2.8,2.3,4.2,6.3,4.2,12c0,4.1-0.6,7.3-1.9,9.5
		c-1.5,2.6-4.1,4.4-7.8,5.4c3.1,0.3,5.3,1.3,6.6,3.1c1,1.4,1.7,3.6,2,6.8c0,0.2,0.1,3.7,0.4,10.4c0.1,1.9,0.3,4.4,0.4,7.6
		C178.9,144.9,179.1,146.2,179.3,148z M171.6,101.7c0-3.6-0.8-6.1-2.4-7.6c-1.6-1.5-4.1-2.2-7.6-2.2h-8.2v21.4h6.1
		c4.6,0,7.8-0.8,9.5-2.4C170.8,109.4,171.6,106.3,171.6,101.7z"/>
	<path fill="#FFFFFF" d="M246.3,116.1c0,6.5-0.2,11.3-0.7,14.5c-0.9,5.9-2.6,10.2-5.3,12.7c-3.3,3.1-8.2,4.7-14.9,4.7h-15.1V86.2
		h15.1c6.1,0,10.8,1.2,13.9,3.6c2.9,2.1,4.8,5.2,5.7,9.3C245.9,102.5,246.3,108.2,246.3,116.1z M238.7,116.8c0-5.7-0.1-9.7-0.4-12.1
		c-0.7-5.4-2.2-8.9-4.6-10.6c-1.9-1.5-4.8-2.2-8.6-2.2h-7.5v50.3h8.5c3.1,0,5.6-0.7,7.4-2.1c2.4-1.8,4-5.4,4.7-10.8
		C238.5,126.7,238.7,122.5,238.7,116.8z"/>
	<path fill="#FFFFFF" d="M296.3,148h-7.5l-4.4-15.7h-21.5l-4.4,15.7h-7.3l18.1-61.9h9L296.3,148z M282.7,126.6l-9-33.6l-9,33.6
		H282.7z"/>
	<path fill="#FFFFFF" d="M342.8,148h-11.3l-20.8-55.6V148h-6.7V86.2h11.3l20.8,55.6V86.2h6.7V148z"/>
	<path fill="#FFFFFF" d="M411.9,116.1c0,6.5-0.2,11.3-0.7,14.5c-0.9,5.9-2.6,10.2-5.3,12.7c-3.3,3.1-8.2,4.7-14.9,4.7h-15.1V86.2
		H391c6.1,0,10.8,1.2,13.9,3.6c2.9,2.1,4.8,5.2,5.7,9.3C411.5,102.5,411.9,108.2,411.9,116.1z M404.3,116.8c0-5.7-0.1-9.7-0.4-12.1
		c-0.7-5.4-2.2-8.9-4.6-10.6c-1.9-1.5-4.8-2.2-8.6-2.2h-7.5v50.3h8.5c3.1,0,5.6-0.7,7.4-2.1c2.4-1.8,4-5.4,4.7-10.8
		C404.1,126.7,404.3,122.5,404.3,116.8z"/>
	<path fill="#FFFFFF" d="M459.6,127.6c0,7.2-1.3,12.6-3.9,16c-2.9,3.7-7.6,5.6-14.3,5.6c-7,0-11.9-2-14.7-6.1
		c-2.3-3.4-3.5-8.7-3.5-16V86.2h7.3v40.6c0,5.2,0.6,9.1,1.7,11.5c1.6,3.5,4.7,5.2,9.2,5.2c4.5,0,7.6-1.7,9.2-5.1
		c1.1-2.3,1.7-6.1,1.7-11.2V86.2h7.3V127.6z"/>
	<path fill="#FFFFFF" d="M480.1,148h-7.3V86.2h7.3V148z"/>
	<path fill="#FFFFFF" d="M523.2,148h-34v-6.4l26.3-49.5h-24.7v-5.9H523v6.8l-26.1,49.2h26.3V148z"/>
	<path fill="#FFFFFF" d="M561.5,148h-29.1V86.2h28.5v5.9h-21.2v21.2h20.1v5.7h-20.1v23.1h21.8V148z"/>
	<path fill="#FFFFFF" d="M610.1,148h-11.3l-20.8-55.6V148h-6.7V86.2h11.3l20.8,55.6V86.2h6.7V148z"/>
	<path fill="#FFFFFF" d="M659.9,116.1c0,6.5-0.2,11.3-0.7,14.5c-0.9,5.9-2.6,10.2-5.3,12.7c-3.3,3.1-8.2,4.7-14.9,4.7h-15.1V86.2
		H639c6.1,0,10.8,1.2,13.9,3.6c2.9,2.1,4.8,5.2,5.7,9.3C659.5,102.5,659.9,108.2,659.9,116.1z M652.2,116.8c0-5.7-0.1-9.7-0.4-12.1
		c-0.7-5.4-2.2-8.9-4.6-10.6c-1.9-1.5-4.8-2.2-8.6-2.2h-7.5v50.3h8.5c3.1,0,5.6-0.7,7.4-2.1c2.4-1.8,4-5.4,4.7-10.8
		C652.1,126.7,652.2,122.5,652.2,116.8z"/>
	<path fill="#FFFFFF" d="M730.1,148h-7.5l-4.4-15.7h-21.5l-4.4,15.7h-7.3l18.1-61.9h9L730.1,148z M716.5,126.6l-9-33.6l-9,33.6
		H716.5z"/>
	<path fill="#FFFFFF" d="M776.6,148h-11.3l-20.8-55.6V148h-6.7V86.2h11.3l20.8,55.6V86.2h6.7V148z"/>
	<path fill="#FFFFFF" d="M797.6,148h-7.3V86.2h7.3V148z"/>
	<path fill="#FFFFFF" d="M864.9,148h-7.1V91.5L841.9,148h-8.1l-15.9-56.5V148h-6.6V86.2h12l14.9,54.5L853,86.2h12V148z"/>
	<path fill="#FFFFFF" d="M917.7,148h-7.5l-4.4-15.7h-21.5L880,148h-7.3l18.1-61.9h9L917.7,148z M904.1,126.6l-9-33.6l-9,33.6H904.1z
		"/>
	<path fill="#FFFFFF" d="M950,92.1h-14.3v56h-7.3v-56h-14.3v-5.9H950V92.1z"/>
	<path fill="#FFFFFF" d="M964.7,148h-7.3V86.2h7.3V148z"/>
	<path fill="#FFFFFF" d="M1007.5,148h-29.1V86.2h28.5v5.9h-21.2v21.2h20.1v5.7h-20.1v23.1h21.8V148z"/>
	<path fill="#FFFFFF" d="M1048.5,132.9c0,5.4-1.5,9.4-4.5,12.1c-3,2.7-7.2,4.1-12.4,4.1c-6.1,0-10.5-1.5-13.3-4.4
		c-2.7-2.8-4-7.3-4-13.4v-0.7h7.5v0.7c0,3.9,0.6,6.7,1.9,8.6c1.5,2.3,4.2,3.5,7.9,3.5c6.3,0,9.4-3.3,9.4-10c0-3.4-1.1-6.1-3.3-8.3
		c-1-1-3.5-2.7-7.4-5.1c-5.5-3.4-9.1-6-10.8-7.7c-2.9-3.1-4.4-7-4.4-11.8c0-5,1.6-8.9,4.8-11.6c3-2.6,7-3.9,12-3.9
		c10.6,0,16,5,16,15v2.1h-7.3v-1.5c0-3.2-0.6-5.5-1.7-7c-1.4-1.8-3.8-2.7-7.2-2.7c-2.9,0-5.1,0.8-6.7,2.5c-1.6,1.7-2.4,3.9-2.4,6.8
		c0,3.5,1.3,6.5,4,8.8c0.2,0.2,3.1,2.1,8.7,5.6c5,3.1,8,5.4,9.2,6.8C1047.2,124.2,1048.5,128,1048.5,132.9z"/>
</g>
<g>
	<path fill="#FFFFFF" d="M36.8,201.1c0,6.5-0.2,11.3-0.7,14.5c-0.9,5.9-2.6,10.2-5.3,12.7c-3.3,3.1-8.2,4.7-14.9,4.7H0.8v-61.9h15.1
		c6.1,0,10.8,1.2,13.9,3.6c2.9,2.1,4.8,5.2,5.7,9.3C36.4,187.5,36.8,193.1,36.8,201.1z M29.2,201.7c0-5.7-0.1-9.7-0.4-12.1
		c-0.7-5.4-2.2-8.9-4.6-10.6c-1.9-1.5-4.8-2.2-8.6-2.2H8v50.3h8.5c3.1,0,5.6-0.7,7.4-2.1c2.4-1.8,4-5.4,4.7-10.8
		C29,211.7,29.2,207.5,29.2,201.7z"/>
	<path fill="#FFFFFF" d="M55.9,233h-7.3v-61.9h7.3V233z"/>
	<path fill="#FFFFFF" d="M98.7,233H69.6v-61.9h28.5v5.9H76.8v21.2h20.1v5.7H76.8v23.1h21.8V233z"/>
	<path fill="#FFFFFF" d="M159.8,187.6c0,7.2-1.8,12.1-5.4,14.6c-2.7,1.9-7.4,2.8-14.2,2.8h-5V233h-7.3v-61.9h14.3
		c6.2,0,10.7,1.1,13.3,3.4C158.4,177,159.8,181.4,159.8,187.6z M152.4,187.7c0-4.1-0.8-6.9-2.5-8.5c-1.7-1.5-4.6-2.3-8.8-2.3h-5.9
		v22.3h5.3c4.4,0,7.5-0.8,9.2-2.5C151.5,195.1,152.4,192.1,152.4,187.7z"/>
	<path fill="#FFFFFF" d="M202.6,233H195c-0.4-2.3-0.6-4.4-0.6-6.4c0-1-0.1-3.7-0.3-8.1c-0.3-6.2-0.8-9.9-1.5-11.1
		c-1.1-2.2-4-3.3-8.6-3.3h-7.3V233h-7.3v-61.9h16.5c5.6,0,9.7,1.1,12.2,3.3c2.8,2.3,4.2,6.3,4.2,12c0,4.1-0.6,7.3-1.9,9.5
		c-1.5,2.6-4.1,4.4-7.8,5.4c3.1,0.3,5.3,1.3,6.6,3.1c1,1.4,1.7,3.6,2,6.8c0,0.2,0.1,3.7,0.4,10.4c0.1,1.9,0.3,4.4,0.4,7.6
		C202.2,229.9,202.4,231.2,202.6,233z M194.9,186.7c0-3.6-0.8-6.1-2.4-7.6c-1.6-1.5-4.1-2.2-7.6-2.2h-8.2v21.4h6.1
		c4.6,0,7.8-0.8,9.5-2.4C194,194.3,194.9,191.2,194.9,186.7z"/>
	<path fill="#FFFFFF" d="M243.3,233h-29.1v-61.9h28.5v5.9h-21.2v21.2h20.1v5.7h-20.1v23.1h21.8V233z"/>
	<path fill="#FFFFFF" d="M287.1,215.9c0,12.1-5.9,18.2-17.6,18.2c-7.9,0-13.1-2.9-15.6-8.6c-1.7-4-2.5-11.7-2.5-23.1
		c0-11,0.8-18.5,2.4-22.6c2.6-6.6,8.1-9.8,16.3-9.8c10.9,0,16.4,5.7,16.4,17.2v1.4h-7.3v-1.1c0-7.7-3.1-11.6-9.2-11.6
		c-4.8,0-8,2.4-9.5,7.3c-1,3.3-1.5,9.6-1.5,19c0,10,0.5,16.6,1.5,19.8c1.4,4.3,4.4,6.5,9,6.5c6.8,0,10.2-4.2,10.2-12.7v-1.2h7.4
		V215.9z"/>
	<path fill="#FFFFFF" d="M304.3,233H297v-61.9h7.3V233z"/>
	<path fill="#FFFFFF" d="M347,233h-29.1v-61.9h28.5v5.9h-21.2v21.2h20.1v5.7h-20.1v23.1H347V233z"/>
	<path fill="#FFFFFF" d="M388,217.8c0,5.4-1.5,9.4-4.5,12.1c-3,2.7-7.2,4.1-12.4,4.1c-6.1,0-10.5-1.5-13.3-4.4
		c-2.7-2.8-4-7.3-4-13.4v-0.7h7.5v0.7c0,3.9,0.6,6.7,1.9,8.6c1.5,2.3,4.2,3.5,7.9,3.5c6.3,0,9.4-3.3,9.4-10c0-3.4-1.1-6.1-3.3-8.3
		c-1-1-3.5-2.7-7.4-5.1c-5.5-3.4-9.1-6-10.8-7.7c-2.9-3.1-4.4-7-4.4-11.8c0-5,1.6-8.9,4.8-11.6c3-2.6,7-3.9,12-3.9
		c10.6,0,16,5,16,15v2.1h-7.3v-1.5c0-3.2-0.6-5.5-1.7-7c-1.4-1.8-3.8-2.7-7.2-2.7c-2.9,0-5.1,0.8-6.7,2.5c-1.6,1.7-2.4,3.9-2.4,6.8
		c0,3.5,1.3,6.5,4,8.8c0.2,0.2,3.1,2.1,8.7,5.6c5,3.1,8,5.4,9.2,6.8C386.7,209.1,388,213,388,217.8z"/>
	<path fill="#FFFFFF" d="M453.8,212.5c0,7.2-1.3,12.6-3.9,16c-2.9,3.7-7.6,5.6-14.3,5.6c-7,0-11.9-2-14.7-6.1
		c-2.3-3.4-3.5-8.7-3.5-16v-40.9h7.3v40.6c0,5.2,0.6,9.1,1.7,11.5c1.6,3.5,4.7,5.2,9.2,5.2c4.5,0,7.6-1.7,9.2-5.1
		c1.1-2.3,1.7-6.1,1.7-11.2v-40.9h7.3V212.5z"/>
	<path fill="#FFFFFF" d="M474.3,233H467v-61.9h7.3V233z"/>
	<path fill="#FFFFFF" d="M517.6,177h-14.3v56H496v-56h-14.3v-5.9h35.9V177z"/>
	<path fill="#FFFFFF" d="M551.7,233H525v-61.9h7.3v56h19.4V233z"/>
	<path fill="#FFFFFF" d="M589.3,233h-29.1v-61.9h28.5v5.9h-21.2v21.2h20.1v5.7h-20.1v23.1h21.8V233z"/>
	<path fill="#FFFFFF" d="M634.1,187.7h-7.4v-1.1c0-7.2-3.3-10.9-9.8-10.9c-5.3,0-8.8,2.7-10.4,8.1c-1,3.3-1.5,9.3-1.5,18.1
		c0,9.3,0.5,15.5,1.5,18.6c1.6,5.2,5.2,7.8,10.8,7.8c3.5,0,6.6-0.6,9.2-1.8v-20.3h-10.7v-5.7h17.8v30.8c-5.4,1.8-10.8,2.7-16.2,2.7
		c-8.7,0-14.4-3-17.1-8.9c-1.9-4.1-2.8-11.7-2.8-22.8c0-11.1,1-18.8,2.9-23.1c2.7-6.3,8.2-9.4,16.4-9.4c11.5,0,17.3,5.6,17.3,16.9
		V187.7z"/>
	<path fill="#FFFFFF" d="M680.5,187.7H673v-1.1c0-7.2-3.3-10.9-9.8-10.9c-5.3,0-8.8,2.7-10.4,8.1c-1,3.3-1.5,9.3-1.5,18.1
		c0,9.3,0.5,15.5,1.5,18.6c1.6,5.2,5.2,7.8,10.8,7.8c3.5,0,6.6-0.6,9.2-1.8v-20.3h-10.7v-5.7H680v30.8c-5.4,1.8-10.8,2.7-16.2,2.7
		c-8.7,0-14.4-3-17.1-8.9c-1.9-4.1-2.8-11.7-2.8-22.8c0-11.1,1-18.8,2.9-23.1c2.7-6.3,8.2-9.4,16.4-9.4c11.5,0,17.3,5.6,17.3,16.9
		V187.7z"/>
	<path fill="#FFFFFF" d="M721.1,233H692v-61.9h28.5v5.9h-21.2v21.2h20.1v5.7h-20.1v23.1h21.8V233z"/>
	<path fill="#FFFFFF" d="M769.8,233h-11.3l-20.8-55.6V233H731v-61.9h11.3l20.8,55.6v-55.6h6.7V233z"/>
	<path fill="#FFFFFF" d="M865.3,171.1L851.1,233h-8.7l-10.9-54.2L820,233h-8.7l-13.7-61.9h7.7l10.6,54.1l11.6-54.1h8.7l10.8,54.1
		l11.3-54.1H865.3z"/>
	<path fill="#FFFFFF" d="M910.9,233h-7.5l-4.4-15.7h-21.5l-4.4,15.7h-7.3l18.1-61.9h9L910.9,233z M897.3,211.6l-9-33.6l-9,33.6
		H897.3z"/>
	<path fill="#FFFFFF" d="M957.8,233h-7.5l-4.4-15.7h-21.5L920,233h-7.3l18.1-61.9h9L957.8,233z M944.2,211.6l-9-33.6l-9,33.6H944.2z
		"/>
	<path fill="#FFFFFF" d="M998.8,233h-7.6c-0.4-2.3-0.6-4.4-0.6-6.4c0-1-0.1-3.7-0.3-8.1c-0.3-6.2-0.8-9.9-1.5-11.1
		c-1.1-2.2-4-3.3-8.6-3.3h-7.3V233h-7.3v-61.9h16.5c5.6,0,9.7,1.1,12.2,3.3c2.8,2.3,4.2,6.3,4.2,12c0,4.1-0.6,7.3-1.9,9.5
		c-1.5,2.6-4.1,4.4-7.8,5.4c3.1,0.3,5.3,1.3,6.6,3.1c1,1.4,1.7,3.6,2,6.8c0,0.2,0.1,3.7,0.4,10.4c0.1,1.9,0.3,4.4,0.4,7.6
		C998.4,229.9,998.5,231.2,998.8,233z M991.1,186.7c0-3.6-0.8-6.1-2.4-7.6c-1.6-1.5-4.1-2.2-7.6-2.2h-8.2v21.4h6.1
		c4.6,0,7.8-0.8,9.5-2.4C990.2,194.3,991.1,191.2,991.1,186.7z"/>
	<path fill="#FFFFFF" d="M1055.5,214.6c0,6.4-1,11.2-3,14.2c-2.4,3.5-6.6,5.3-12.5,5.3c-5.7,0-9.7-1.6-12.1-4.9
		c-1.9-2.7-2.9-7-2.9-12.7v-1.7h7.3v1.1c0,4,0.4,6.8,1.1,8.5c1.1,2.6,3.4,3.9,6.8,3.9c3.7,0,6.1-1.6,7.2-4.9
		c0.6-1.7,0.9-4.9,0.9-9.5v-42.8h7.3V214.6z"/>
	<path fill="#FFFFFF" d="M1076,233h-7.3v-61.9h7.3V233z M1115.5,214.6c0,6.4-1,11.2-3,14.2c-2.4,3.5-6.6,5.3-12.5,5.3
		c-5.7,0-9.7-1.6-12.1-4.9c-1.9-2.7-2.9-7-2.9-12.7v-1.7h7.3v1.1c0,4,0.4,6.8,1.1,8.5c1.1,2.6,3.4,3.9,6.8,3.9
		c3.7,0,6.1-1.6,7.2-4.9c0.6-1.7,0.9-4.9,0.9-9.5v-42.8h7.3V214.6z"/>
</g>
<g>
	<path fill="#FFFFFF" d="M8,317.9H0.8v-61.9H8V317.9z"/>
	<path fill="#FFFFFF" d="M60.5,317.9H49.2l-20.8-55.6v55.6h-6.7v-61.9H33l20.8,55.6v-55.6h6.7V317.9z"/>
	<path fill="#FFFFFF" d="M129.5,286c0,6.5-0.2,11.3-0.7,14.5c-0.9,5.9-2.6,10.2-5.3,12.7c-3.3,3.1-8.2,4.7-14.9,4.7H93.5v-61.9h15.1
		c6.1,0,10.8,1.2,13.9,3.6c2.9,2.1,4.8,5.2,5.7,9.3C129.1,272.4,129.5,278.1,129.5,286z M121.9,286.7c0-5.7-0.1-9.7-0.4-12.1
		c-0.7-5.4-2.2-8.9-4.6-10.6c-1.9-1.5-4.8-2.2-8.6-2.2h-7.5v50.3h8.5c3.1,0,5.6-0.7,7.4-2.1c2.4-1.8,4-5.4,4.7-10.8
		C121.8,296.6,121.9,292.5,121.9,286.7z"/>
	<path fill="#FFFFFF" d="M170.4,317.9h-29.1v-61.9h28.5v5.9h-21.2v21.2h20.1v5.7h-20.1V312h21.8V317.9z"/>
	<path fill="#FFFFFF" d="M207,317.9h-7.3v-61.9h7.3V317.9z M235.2,317.9h-8.6l-19.3-33.2l18.8-28.7h8.4l-19.6,28.5L235.2,317.9z"/>
	<path fill="#FFFFFF" d="M269.1,317.9h-26.7v-61.9h7.3v56h19.4V317.9z"/>
	<path fill="#FFFFFF" d="M316.7,317.9h-7.5l-4.4-15.7h-21.5l-4.4,15.7h-7.3l18.1-61.9h9L316.7,317.9z M303.1,296.5l-9-33.6l-9,33.6
		H303.1z"/>
	<path fill="#FFFFFF" d="M355.6,302.8c0,5.4-1.5,9.4-4.5,12.1c-3,2.7-7.2,4.1-12.4,4.1c-6.1,0-10.5-1.5-13.3-4.4
		c-2.7-2.8-4-7.3-4-13.4v-0.7h7.5v0.7c0,3.9,0.6,6.7,1.9,8.6c1.5,2.3,4.2,3.5,7.9,3.5c6.3,0,9.4-3.3,9.4-10c0-3.4-1.1-6.1-3.3-8.3
		c-1-1-3.5-2.7-7.4-5.1c-5.5-3.4-9.1-6-10.8-7.7c-2.9-3.1-4.4-7-4.4-11.8c0-5,1.6-8.9,4.8-11.6c3-2.6,7-3.9,12-3.9
		c10.6,0,16,5,16,15v2.1h-7.3v-1.5c0-3.2-0.6-5.5-1.7-7c-1.4-1.8-3.8-2.7-7.2-2.7c-2.9,0-5.1,0.8-6.7,2.5c-1.6,1.7-2.4,3.9-2.4,6.8
		c0,3.5,1.3,6.5,4,8.8c0.2,0.2,3.1,2.1,8.7,5.6c5,3.1,8,5.4,9.2,6.8C354.3,294.1,355.6,297.9,355.6,302.8z"/>
	<path fill="#FFFFFF" d="M439.1,317.9H432v-56.5l-15.9,56.5H408L392,261.5v56.5h-6.6v-61.9h12l14.9,54.5l14.8-54.5h12V317.9z"/>
	<path fill="#FFFFFF" d="M481.9,317.9h-29.1v-61.9h28.5v5.9h-21.2v21.2h20.1v5.7h-20.1V312h21.8V317.9z"/>
	<path fill="#FFFFFF" d="M520.9,317.9h-29.1v-61.9h28.5v5.9h-21.2v21.2h20.1v5.7h-20.1V312h21.8V317.9z"/>
	<path fill="#FFFFFF" d="M583.8,301c0,6.3-1.6,10.7-4.7,13.3c-2.9,2.4-7.4,3.6-13.8,3.6h-15.1v-61.9h16.4c5.5,0,9.6,1.2,12.2,3.6
		c2.6,2.4,3.9,6.4,3.9,11.9c0,3.9-0.7,6.8-2,8.9c-1.4,2.3-3.8,4.1-7.3,5.1c4,1,6.8,2.8,8.3,5.4C583.1,293.3,583.8,296.6,583.8,301z
		 M575.4,272c0-3.8-0.9-6.5-2.8-8c-1.6-1.4-4.3-2.1-8-2.1h-7.2V283h7.6C571.9,283,575.4,279.3,575.4,272z M576.3,300.6
		c0-4-0.9-7.1-2.6-9c-1.7-2-4.6-3-8.6-3h-7.8v23.4h6.6c4.3,0,7.4-0.7,9.2-2.1C575.3,308.3,576.3,305.2,576.3,300.6z"/>
	<path fill="#FFFFFF" d="M624,317.9h-29.1v-61.9h28.5v5.9h-21.2v21.2h20.1v5.7h-20.1V312H624V317.9z"/>
	<path fill="#FFFFFF" d="M663.4,317.9h-34v-6.4l26.3-49.5h-24.7v-5.9h32.3v6.8L637.1,312h26.3V317.9z"/>
	<path fill="#FFFFFF" d="M679.8,317.9h-7.3v-61.9h7.3V317.9z"/>
	<path fill="#FFFFFF" d="M728.3,272.7h-7.4v-1.1c0-7.2-3.3-10.9-9.8-10.9c-5.3,0-8.8,2.7-10.4,8.1c-1,3.3-1.5,9.3-1.5,18.1
		c0,9.3,0.5,15.5,1.5,18.6c1.6,5.2,5.2,7.8,10.8,7.8c3.5,0,6.6-0.6,9.2-1.8v-20.3H710v-5.7h17.8v30.8c-5.4,1.8-10.8,2.7-16.2,2.7
		c-8.7,0-14.4-3-17.1-8.9c-1.9-4.1-2.8-11.7-2.8-22.8c0-11.1,1-18.8,2.9-23.1c2.7-6.3,8.2-9.4,16.4-9.4c11.5,0,17.3,5.6,17.3,16.9
		V272.7z"/>
	<path fill="#FFFFFF" d="M792.8,301c0,6.3-1.6,10.7-4.7,13.3c-2.9,2.4-7.4,3.6-13.8,3.6h-15.1v-61.9h16.4c5.5,0,9.6,1.2,12.2,3.6
		c2.6,2.4,3.9,6.4,3.9,11.9c0,3.9-0.7,6.8-2,8.9c-1.4,2.3-3.8,4.1-7.3,5.1c4,1,6.8,2.8,8.3,5.4C792.1,293.3,792.8,296.6,792.8,301z
		 M784.4,272c0-3.8-0.9-6.5-2.8-8c-1.6-1.4-4.3-2.1-8-2.1h-7.2V283h7.6C781,283,784.4,279.3,784.4,272z M785.4,300.6
		c0-4-0.9-7.1-2.6-9c-1.7-2-4.6-3-8.6-3h-7.8v23.4h6.6c4.3,0,7.4-0.7,9.2-2.1C784.3,308.3,785.4,305.2,785.4,300.6z"/>
	<path fill="#FFFFFF" d="M833,317.9h-29.1v-61.9h28.5v5.9h-21.2v21.2h20.1v5.7h-20.1V312H833V317.9z"/>
	<path fill="#FFFFFF" d="M881.7,317.9h-11.3l-20.8-55.6v55.6H843v-61.9h11.3l20.8,55.6v-55.6h6.7V317.9z"/>
	<path fill="#FFFFFF" d="M925,262h-14.3v56h-7.3v-56h-14.3v-5.9H925V262z"/>
</g>
<g>
</g>
<g>
</g>
<g>
</g>
<g>
</g>
<g>
</g>
<g>
</g>
<g>
</g>
<g>
</g>
<g>
</g>
<g>
</g>
<g>
</g>
<g>
</g>
<g>
</g>
<g>
</g>
<g>
</g>
</svg>
